#basic asset

mtllib BasicMaterial.mtl
v -1.0  1.0 -1.0
v  1.0  1.0 -1.0
v -1.0 -1.0 -1.0
v  1.0 -1.0 -1.0
v -1.0  1.0  1.0
v  1.0  1.0  1.0
v -1.0 -1.0  1.0
v  1.0 -1.0  1.0
vt 0.0 0.0
vt 1.0 0.0
vt 0.0 1.0
vt 1.0 1.0
vn -1.0  1.0 -1.0
vn  1.0  1.0 -1.0
vn -1.0 -1.0 -1.0
vn  1.0 -1.0 -1.0
vn -1.0  1.0  1.0
vn  1.0  1.0  1.0
vn -1.0 -1.0  1.0
vn  1.0 -1.0  1.0

usemtl None
f  5/3/5 3/2/3 7/1/7
f  5/3/5 1/4/1 3/2/3
f  1/3/1 4/2/4 3/1/3
f  1/3/1 2/4/2 4/2/4
f  2/3/2 8/2/8 4/1/4
f  2/3/2 6/4/6 8/2/8
f  6/3/6 7/2/7 8/1/8
f  6/3/6 5/4/5 7/2/7
f  5/3/5 2/2/2 1/1/1
f  5/3/5 6/4/6 2/2/2
f  3/3/3 8/2/8 7/1/7
f  3/3/3 4/4/4 8/2/8